<?xml version="1.0" standalone="no"?>
<!DOCTYPE svg PUBLIC "-//W3C//DTD SVG 20010904//EN"
 "http://www.w3.org/TR/2001/REC-SVG-20010904/DTD/svg10.dtd">
<svg version="1.0" xmlns="http://www.w3.org/2000/svg"
 width="271.000000pt" height="271.000000pt" viewBox="0 0 271.000000 271.000000"
 preserveAspectRatio="xMidYMid meet">
<metadata>
Created by potrace 1.11, written by Peter Selinger 2001-2013
</metadata>
<g transform="translate(0.000000,271.000000) scale(0.100000,-0.100000)"
fill="#000000" stroke="none">
<path d="M1090 2539 c-255 -61 -241 -56 -204 -78 53 -33 87 -74 339 -413 236
-318 250 -334 253 -302 3 32 6 34 40 35 46 1 243 1 257 0 7 -1 10 -85 10 -242
-1 -203 1 -243 14 -259 9 -10 43 -56 75 -100 33 -45 70 -86 84 -91 25 -10 295
-6 347 5 17 4 54 11 84 17 112 23 152 115 111 257 -10 37 -31 69 -110 167 -31
39 -126 162 -211 275 -85 113 -156 207 -159 210 -3 3 -17 21 -30 40 -13 19
-30 41 -37 48 -7 7 -13 17 -13 20 0 4 -10 18 -22 32 -25 28 -147 191 -191 256
-49 73 -137 134 -228 158 -99 25 -185 18 -409 -35z"/>
<path d="M2091 2569 c-62 -8 -140 -29 -146 -39 -2 -4 58 -92 135 -196 77 -104
220 -297 317 -428 l177 -239 23 29 c30 37 77 136 94 194 6 25 12 86 12 135 0
155 -47 267 -158 381 -124 127 -283 184 -454 163z"/>
<path d="M705 2296 c-6 -6 -51 -65 -100 -131 -50 -66 -174 -230 -275 -364
-102 -134 -196 -257 -208 -275 -70 -93 -114 -256 -117 -435 -1 -68 2 -145 6
-170 4 -25 10 -71 13 -102 4 -31 8 -66 11 -77 10 -53 37 -268 38 -299 1 -24
13 -13 30 25 15 35 51 86 119 173 15 19 85 111 155 204 71 94 199 262 284 375
86 113 217 286 292 384 l136 180 -19 25 c-291 409 -357 497 -365 487z"/>
<path d="M1082 1066 c-3 -6 -5 -79 -5 -163 l0 -153 -217 0 -217 0 -40 -43
c-64 -69 -187 -265 -223 -355 -19 -49 -8 -124 24 -167 49 -64 36 -62 616 -58
960 7 917 5 980 34 93 44 173 138 259 304 55 107 151 305 151 310 0 2 -18 -2
-40 -10 -32 -11 -128 -14 -484 -15 l-443 0 1 160 c1 136 -1 160 -14 161 -97 6
-343 2 -348 -5z"/>
</g>
</svg>
